<svg width="13" height="13" viewBox="0 0 13 13" fill="none" xmlns="http://www.w3.org/2000/svg">
<path d="M5.33994 -1.23978e-05C4.30661 -1.23978e-05 3.36494 0.249988 2.51494 0.749988C1.66494 1.24999 0.981608 1.93332 0.464941 2.79999C-0.0517252 3.66665 -0.310059 4.60832 -0.310059 5.62499C-0.310059 6.64165 -0.0517252 7.58332 0.464941 8.44999C0.981608 9.31665 1.66494 9.99999 2.51494 10.5C3.36494 11 4.30661 11.25 5.33994 11.25C5.97327 11.25 6.58994 11.1417 7.18994 10.925C7.78994 10.7083 8.33994 10.4167 8.83994 10.05L11.1899 12.35C11.2899 12.4833 11.4316 12.55 11.6149 12.55C11.7983 12.55 11.9483 12.4917 12.0649 12.375C12.1816 12.2583 12.2399 12.1083 12.2399 11.925C12.2399 11.7417 12.1733 11.6 12.0399 11.5L9.73994 9.14999C10.1066 8.64999 10.3983 8.09999 10.6149 7.49999C10.8316 6.89999 10.9399 6.28332 10.9399 5.64999C10.9399 4.61665 10.6899 3.66665 10.1899 2.79999C9.68994 1.93332 9.00661 1.24999 8.13994 0.749988C7.27327 0.249988 6.33994 -1.23978e-05 5.33994 -1.23978e-05ZM5.33994 1.24999C6.13994 1.24999 6.87327 1.44999 7.53994 1.84999C8.20661 2.24999 8.73161 2.78332 9.11494 3.44999C9.49827 4.11665 9.68994 4.84165 9.68994 5.62499C9.68994 6.40832 9.49827 7.14165 9.11494 7.82499C8.73161 8.50832 8.20661 9.04165 7.53994 9.42499C6.87327 9.80832 6.13994 9.99999 5.33994 9.99999C4.53994 9.99999 3.80661 9.80832 3.13994 9.42499C2.47327 9.04165 1.93994 8.50832 1.53994 7.82499C1.13994 7.14165 0.939941 6.40832 0.939941 5.62499C0.939941 4.84165 1.13994 4.11665 1.53994 3.44999C1.93994 2.78332 2.47327 2.24999 3.13994 1.84999C3.80661 1.44999 4.53994 1.24999 5.33994 1.24999Z" fill="white"/>
</svg>
